<svg xmlns="http://www.w3.org/2000/svg" xmlns:xlink="http://www.w3.org/1999/xlink" id="Layer_1" x="0px" y="0px" width="91px" height="81px" viewBox="0 0 91 81" xml:space="preserve"><path fill-rule="evenodd" clip-rule="evenodd" fill="#FE9202" d="M36.528,53.785c1.661-4.189,2.896-8.563,7.156-11.191  c5.469-3.373,26.386-3.698,31.843-0.23c1.068,0.679,2.232,1.428,2.927,2.438c5.158,7.504,9.188,15.39,7.614,24.964  c-0.133,0.809,0.011,1.762-1.266,1.785c-1.236,0.021-1.875-0.596-1.897-1.771c-0.056-2.981-0.154-5.969-0.041-8.946  c0.117-3.13-1.457-4.436-4.359-4.441c-12.5-0.024-25-0.017-37.5-0.021c-2.954-0.001-4.48,1.495-4.549,4.428  c-0.05,2.13,0.1,4.27-0.057,6.389c-0.112,1.525,0.931,4.083-1.495,4.181c-2.595,0.105-1.496-2.5-1.586-3.954  c-0.209-3.391-0.175-6.798-0.24-10.197c-0.256-0.657,0.087-1.111,0.512-1.543C34.401,54.783,35.648,54.571,36.528,53.785z"></path><path fill-rule="evenodd" clip-rule="evenodd" fill="#FE9201" d="M62.305,35.958c-7.219,1.492-13.842-2.784-15.239-9.834  c-1.404-7.083,2.948-13.866,9.969-15.537c6.74-1.604,13.916,3.035,15.46,9.994c1.643,7.401-2.501,13.656-10.191,15.389  c-0.792-0.842-1.855-0.362-1.836-0.355C60.446,35.61,61.499,35.17,62.305,35.958z"></path><path fill-rule="evenodd" clip-rule="evenodd" fill="#FD9307" d="M34.918,52.081c-0.157,0.182-0.207,0.389-0.149,0.622  c-0.298,0.455-0.655,0.508-1.071,0.165c-1.454-2.507-3.688-3.149-6.479-3.094c-5.539,0.107-11.084,0.166-16.626-0.053  c-0.91-0.036-2.226-0.581-2.386,0.91c-0.152,1.414,0.925,1.962,2.214,1.989c3.979,0.085,7.959-0.013,11.939,0.017  c1.42,0.011,2.845-0.043,4.26,0.115c1.65,0.185,3.145,0.71,3.441,2.593c0.342,2.172-0.755,3.387-2.638,3.906  c0.731,0.25,1.82-0.643,2.764,0.095c0.15,0.152,0.298,0.305,0.447,0.458c-1.086,1.4-2.617,0.677-3.95,0.771  c-1.075,0.075-2.514,0.302-2.758-1.231c-0.24-1.512,0.967-1.838,2.196-1.927c0.904-0.065,1.855-0.298,1.66-1.412  c-0.225-1.282-1.418-1.149-2.396-1.152c-5.247-0.011-10.497-0.137-15.738,0.036c-3.177,0.104-4.651-0.783-4.6-4.284  C5.21,39.689,5.168,28.77,5.066,17.852c-0.028-3.021,0.984-4.443,4.152-4.422c11.627,0.078,23.254,0.011,34.881,0.078  c1.055,0.006,3.623-0.946,2.059,2.002c-1.237-1.069-2.723-0.542-4.083-0.548c-11.071-0.048-22.142-0.025-33.213-0.021  c12.049,0.045,24.099-0.021,36.147,0.054c0.476,0.002,0.777,0.289,1.124,0.52c-1.137,1.652-2.858,0.912-4.304,0.924  c-9.501,0.072-19.003,0.019-28.505,0.057c-1.379,0.006-2.84-0.427-4.131,0.463C8.319,26.164,9.046,35.392,8.82,44.606  c-0.055,2.245,1.576,1.936,2.97,1.938c6.397,0.011,12.794,0.003,19.191,0.006C36.861,46.551,36.861,46.553,34.918,52.081z"></path><path fill-rule="evenodd" clip-rule="evenodd" fill="#FE8A00" d="M17.127,40.025c5.249-0.039,10.501-0.213,15.745-0.064  c3.041,0.086,5.044-0.329,4.398-4.08c-0.18-1.042-0.164-2.508,1.521-2.443c1.356,0.051,1.222,1.279,1.334,2.254  c0.757,6.547,0.379,6.988-6.167,7c-5.96,0.011-11.921,0.008-17.881,0.009c-1.435,0-3.146,0.142-3.08-1.93  c0.206-6.477-0.746-12.984,0.495-19.432c7.978-0.883,15.981-0.184,23.97-0.383c0.852-0.021,1.799,0.057,1.959,1.111  c0.165,1.08,0.607,2.47-0.277,3.206c-1.374,1.142-1.03-1.182-1.934-1.251l0.129,0.105c-3.205-1.151-6.429-0.912-9.661-0.131  c-0.1,0.482-0.359,0.846-0.782,1.097c-0.481,0.113-0.939,0.058-1.379-0.164c-2.686-2.87-6.032-1.271-9.063-1.136  c-1.295,0.058-0.663,1.887-0.807,2.934c-0.505,3.666,1.018,7.486-0.827,11.049c-2.054-3.668-0.137-7.613-0.863-10.748  c0.033,3.266-0.165,7.162,0.106,11.057c0.006,0.089,0.144,0.24,0.219,0.239c0.129-0.002,0.257-0.101,0.389-0.16  C15.773,38.412,15.896,39.949,17.127,40.025z"></path><path fill-rule="evenodd" clip-rule="evenodd" fill="#FE8800" d="M19.451,67.204c-2.981,0.001-5.962,0.021-8.943-0.01  c-1.099-0.012-2.493,0.183-2.568-1.456c-0.071-1.563,1.152-1.727,2.362-1.727c6.104,0.001,12.209,0.004,18.314,0.007  c1.211,0.001,2.423,0.153,2.343,1.731c-0.084,1.652-1.458,1.438-2.563,1.444C25.414,67.216,22.432,67.202,19.451,67.204z"></path><path fill-rule="evenodd" clip-rule="evenodd" fill="#FD9D28" d="M27.057,24.771c0.039-0.288,0.078-0.574,0.117-0.861  c0.307-0.309,0.607-0.302,0.9,0.02c-0.038,1.983-0.283,3.99-0.067,5.945c0.353,3.188-1.409,3.536-3.846,3.291  c-0.836-0.084-1.806,0.04-2.145-0.963c-0.392-1.162,0.231-1.812,1.302-2.246c2.462-1,1.505-3.189,1.271-4.787  c-0.285-1.942-2.242-1.105-3.536-1.332c-4.138-0.726-5.679,1.065-5.059,5.094c0.566,3.677-1.13,7.587,1.132,11.094  c-1.468,0.491-1.854-0.996-2.769-1.517c-0.205-0.226-0.272-0.451-0.204-0.677c0.068-0.226,0.136-0.338,0.204-0.338  c1.681-3.312,0.741-6.86,0.695-10.264c-0.045-3.345,1.005-4.677,4.336-4.246c2.392,0.309,5.139-0.856,6.919,1.791  c0.985,2.087-0.101,4.012-0.215,5.753C27.157,28.952,26.265,26.691,27.057,24.771z"></path><path fill-rule="evenodd" clip-rule="evenodd" fill="#FE9D1B" d="M28.074,23.93c-0.3-0.006-0.6-0.013-0.9-0.02  c3.417-1.328,6.814-1.702,10.163,0.216C34.259,23.582,31.166,23.798,28.074,23.93z"></path><path fill-rule="evenodd" clip-rule="evenodd" fill="#FEFCF9" d="M34.013,52.954c0.242-0.113,0.494-0.197,0.755-0.251  c0.032,0.367,0.063,0.732,0.095,1.1c0.537,1.102-0.41,1.66-0.876,2.395c-0.303,0.339-0.606,0.68-0.909,1.02  c-0.518,0.281-1.034,0.564-1.551,0.846c-1.104-1.167-0.412-2.333-0.006-3.504C32.055,53.565,32.811,52.91,34.013,52.954z"></path><path fill-rule="evenodd" clip-rule="evenodd" fill="#FD9307" d="M32.272,54.648c-0.248,1.139-0.497,2.276-0.745,3.414  c-0.298,0.581-0.596,1.162-0.894,1.742l-0.186-0.182C29.712,57.472,29.109,55.369,32.272,54.648z"></path><path fill-rule="evenodd" clip-rule="evenodd" fill="#FDF1E1" d="M33.988,56.197c0.292-0.799,0.584-1.597,0.876-2.395  c0.555-0.006,1.11-0.012,1.665-0.018C35.956,54.878,35.125,55.697,33.988,56.197z"></path><path fill-rule="evenodd" clip-rule="evenodd" fill="#FD8A01" d="M62.305,35.958c-1.194-0.084-2.388-0.168-4.048-0.286  c1.788-0.952,2.988-0.896,4.046,0.297L62.305,35.958z"></path><path fill-rule="evenodd" clip-rule="evenodd" fill="#FE8C00" d="M32.272,54.648c-2.311,1.035-1.458,3.229-1.823,4.976  c-1.646-0.001-3.292-0.001-5.879-0.001c1.767-0.649,2.683-0.897,3.515-1.313c1.201-0.6,1.319-1.731,1.194-2.921  c-0.168-1.609-1.413-1.58-2.538-1.587c-4.836-0.03-9.673-0.014-14.51-0.015c-5.754,0-5.754,0-5.247-5.924  c7.377,1.654,14.855,0.611,22.282,0.728c3.248,0.051,4.834,1.084,4.747,4.362C34.036,54.14,32.62,53.845,32.272,54.648z"></path><path fill-rule="evenodd" clip-rule="evenodd" fill="#FE8800" d="M7.379,23.466c0,5.783,0,11.565,0,17.348  c-0.14,0-0.281-0.001-0.421-0.001c0-5.904,0-11.807,0-17.71C7.098,23.225,7.239,23.346,7.379,23.466z"></path><path fill-rule="evenodd" clip-rule="evenodd" fill="#FE8600" d="M14.358,37.493c0,0.338,0,0.676,0,1.015  c-0.042,0.421,0.035,0.905-0.151,1.246c-0.268,0.491-0.66,0.483-0.662-0.187c-0.014-5.489-0.008-10.977,0.813-16.46  C14.358,27.902,14.358,32.697,14.358,37.493z"></path><path fill-rule="evenodd" clip-rule="evenodd" fill="#FE8600" d="M27.057,24.771c0.026,1.532-0.012,3.068,0.093,4.595  c0.215,3.114-1.33,3.419-4.507,2.428c3.746-1.496,3.476-4.353,3.666-7.02C26.558,24.77,26.807,24.768,27.057,24.771z"></path><path fill-rule="evenodd" clip-rule="evenodd" fill="#FD9307" d="M10.364,51.774c1.99-0.76,3.323-0.587,4.711,0  C13.776,51.774,12.478,51.774,10.364,51.774z"></path><path fill-rule="evenodd" clip-rule="evenodd" fill="#FD9307" d="M29.61,51.893c-0.633,0.501-0.915,0.785-0.961,0.751  c-0.42-0.309-0.922-0.609-1.153-1.043c-0.219-0.411,0.026-0.841,0.618-0.565C28.611,51.266,29.07,51.579,29.61,51.893z"></path></svg>
